Coordinates
version=1
nRows=15
nColumns=34
inDegrees=yes

Units are S.I. units (second, meters, Newtons, ...)
If the header above contains a line with 'inDegrees', this indicates whether rotational values are in degrees (yes) or radians (no).

endheader
time	pelvis_tilt	pelvis_list	pelvis_rotation	pelvis_tx	pelvis_ty	pelvis_tz	hip_flexion_r	hip_adduction_r	hip_rotation_r	knee_angle_r	ankle_angle_r	subtalar_angle_r	mtp_angle_r	hip_flexion_l	hip_adduction_l	hip_rotation_l	knee_angle_l	ankle_angle_l	subtalar_angle_l	mtp_angle_l	lumbar_extension	lumbar_bending	lumbar_rotation	arm_flex_r	arm_add_r	arm_rot_r	elbow_flex_r	pro_sup_r	arm_flex_l	arm_add_l	arm_rot_l	elbow_flex_l	pro_sup_l
      6.38333330	     15.57418268	      1.56570305	      8.13272835	    -11.82797446	      0.95209407	      0.62357624	    -30.00000025	      8.26321779	    -34.16543061	      0.00000000	     -4.95879404	    -20.94673516	      0.00000000	      8.83900161	      9.07954928	     17.52461330	     38.90621167	     -5.39283960	    -29.88232607	      0.00000000	    -21.19453594	      2.38716830	    -35.91076384	   -275.31651228	     32.19447269	    115.19655978	      0.00000000	     17.40645465	     -0.76847729	     -9.13162969	    303.30277280	     32.83269294	     70.71311966
      6.40000000	     15.19041186	      1.65741126	      7.67299647	    -11.81988324	      0.95286942	      0.62402135	    -30.00000025	      7.93295647	    -32.32746741	      0.00000000	     -5.06921976	    -21.91890483	      0.00000000	      8.65865423	      9.20474709	     17.57437105	     38.39978090	     -3.46674756	    -28.73451563	      0.00000000	    -20.06318221	      1.59803007	    -36.02180463	   -276.50572546	     31.81271036	    114.49749127	      0.00000000	     17.48035238	     -1.65134418	     -8.86429874	    303.43141409	     32.82182136	     71.06797155
      6.41666670	     14.85599431	      1.91818821	      7.06474364	    -11.81351375	      0.95401187	      0.62467074	    -30.00000025	      7.41488143	    -31.50547797	      0.00000000	     -5.19329019	    -22.81038683	      0.00000000	      8.16450856	      9.45278115	     17.64222572	     37.51638076	     -2.31413014	    -28.24060473	      0.00000000	    -18.97343123	      0.58614561	    -36.03014325	   -277.97531562	     31.51334930	    114.19308342	      0.00000000	     17.56504602	     -2.70719851	     -8.54330445	    303.34445488	     32.99606389	     71.25227847
      6.43333330	     14.73023756	      2.09410726	      6.46230320	    -11.81125657	      0.95522714	      0.62501149	    -30.00000025	      6.99942330	    -31.07635566	      0.00000000	     -6.47812629	    -24.67869529	      0.00000000	      7.56251582	      9.50591580	     17.48027561	     36.62634576	     -1.15790151	    -27.33018333	      0.00000000	    -18.43051437	     -0.23253220	    -35.85286474	   -279.12263560	     31.08623872	    113.59235313	      0.00000000	     17.73067815	     -3.70629453	     -8.01631149	    303.14795799	     34.09479713	     71.65401736
      6.45000000	     14.74648098	      2.23830225	      6.14547540	    -11.81189197	      0.95485005	      0.62527312	    -30.00000025	      6.75034128	    -31.61194844	      0.00000000	     -6.81060021	    -25.02125194	      0.00000000	      7.03977510	      9.59115173	     17.62391883	     35.93591834	     -0.86019776	    -27.24736776	      0.00000000	    -18.26063030	     -0.63314909	    -35.91938423	   -280.12523192	     31.08477735	    113.57098117	      0.00000000	     17.77665895	     -4.28562936	     -7.84861410	    303.09131207	     34.17553174	     71.72580337
      6.46666670	     14.75970404	      2.34070101	      6.10401820	    -11.81343229	      0.95351135	      0.62536117	    -30.00000025	      6.65319785	    -31.89028932	      0.00000000	     -6.92689738	    -25.70399213	      0.00000000	      6.82580407	      9.67130360	     17.79654301	     35.60900239	     -0.33824791	    -26.69737737	      0.00000000	    -18.33704456	     -1.07360400	    -36.09438111	   -281.00719364	     30.67753547	    113.61467729	      0.00000000	     17.85192851	     -4.85662283	     -7.81229866	    303.08014011	     35.17366594	     71.92269255
      6.48333330	     14.69705540	      2.21505355	      6.15720598	    -11.81432880	      0.95066270	      0.62488089	    -30.00000025	      6.76443151	    -31.60041148	      0.00000000	     -6.46331475	    -26.03045539	      0.00000000	      7.09441819	      9.66993918	     18.03222556	     35.98493118	      0.55753218	    -26.39205539	      0.00000000	    -18.29588944	     -0.88929599	    -36.28823683	   -281.36012165	     30.63882868	    113.68695694	      0.00000000	     17.88880688	     -5.14552557	     -7.59931624	    303.14692218	     35.74927813	     72.07305965
      6.50000000	     14.54891885	      2.07756006	      6.31960535	    -11.81429512	      0.94813802	      0.62455635	    -30.00000025	      6.94760718	    -31.11932294	      0.00000000	     -5.66169054	    -26.00517570	      0.00000000	      7.63150369	      9.51384714	     17.68352566	     36.69359469	      2.56273650	    -24.52378170	      0.00000000	    -18.11222846	     -0.68266094	    -36.58185738	   -281.57357224	     30.73204759	    113.93418643	      0.00000000	     17.95815869	     -5.73050610	     -7.37895911	    303.51726368	     37.04765721	     72.61458897
      6.51666670	     14.32267969	      2.05341654	      6.64356950	    -11.81340347	      0.94552381	      0.62402543	    -30.00000025	      7.07379728	    -30.35958002	      0.00000000	     -5.18614077	    -26.02496491	      0.00000000	      8.11454835	      9.69210351	     17.98128411	     37.45799043	      3.27387367	    -24.67034390	      0.00000000	    -17.58759363	     -0.72482430	    -36.79061483	   -281.83038095	     30.42543038	    113.95195081	      0.00000000	     17.96238705	     -5.83685316	     -7.38924726	    303.58235483	     37.00412508	     72.70439690
      6.53333330	     14.14359660	      2.07105384	      7.05782377	    -11.81181329	      0.94377522	      0.62374342	    -30.00000025	      7.22928516	    -29.94729065	      0.00000000	     -4.78655803	    -26.24774631	      0.00000000	      8.47853976	      9.84643949	     18.16091579	     38.23861680	      3.75929759	    -24.68769143	      0.00000000	    -17.09383285	     -0.66756815	    -36.79825897	   -281.74209826	     30.11370899	    113.92867345	      0.00000000	     17.95915615	     -5.81741420	     -7.30085757	    303.77142185	     36.95423182	     72.82412609
      6.55000000	     14.06948459	      2.24447762	      7.61212104	    -11.80986317	      0.94439503	      0.62382420	    -30.00000025	      7.34984431	    -30.76462238	      0.00000000	     -5.60900185	    -26.75610363	      0.00000000	      8.43771617	     10.04699131	     18.41635131	     38.52169164	      3.88436740	    -24.54311280	      0.00000000	    -16.80914606	     -0.69185314	    -36.61364015	   -281.44237436	     29.76984600	    113.86645854	      0.00000000	     17.95483729	     -5.61956464	     -7.22884312	    304.15234585	     36.81192679	     73.01044686
      6.56666670	     14.09297137	      2.64847780	      8.15024971	    -11.80827487	      0.94446468	      0.62438392	    -30.00000025	      7.27556672	    -31.18091494	      0.00000000	    -10.63850905	    -32.18138260	      0.00000000	      8.01432073	     10.43040471	     18.83562579	     38.27007928	      2.94963315	    -25.16689926	      0.00000000	    -16.75591766	     -0.96485905	    -36.39155113	   -281.19633117	     29.51008097	    113.65536157	      0.00000000	     18.02430579	     -5.59291413	     -7.58751601	    306.16127474	     35.87416004	     74.10714110
      6.58333330	     14.22910940	      3.17388928	      8.90619868	    -11.80797796	      0.94468321	      0.62460117	    -30.00000025	      7.21398322	    -33.60332393	      0.00000000	    -14.30928249	    -35.00000000	      0.00000000	      7.52071486	     10.93743092	     19.41546254	     37.90157467	      1.95343060	    -25.89552445	      0.00000000	    -17.05730198	     -1.29948344	    -36.68339137	   -280.99755257	     29.50596724	    113.75540534	      0.00000000	     18.16027154	     -5.57043072	     -7.77591447	    306.58267442	     35.98193099	     74.71981514
      6.60000000	     14.50620904	      3.52476820	      9.53433703	    -11.80943574	      0.94651140	      0.62482878	    -30.00000025	      7.27799705	    -36.41664479	      0.00000000	    -16.09042463	    -35.00000000	      0.00000000	      7.08148459	     11.07001815	     19.48013666	     37.43629162	      0.77060533	    -25.77410055	      0.00000000	    -17.64694212	     -1.52745146	    -36.92284721	   -280.78070132	     29.44232516	    113.81583056	      0.00000000	     18.21017522	     -5.18114494	     -7.97001698	    306.72604184	     35.98427937	     74.89698222
      6.61666670	     14.78256624	      3.93556500	     10.16322303	    -11.81211380	      0.94808828	      0.62484806	    -30.00000025	      7.25250100	    -38.90413675	      0.00000000	    -17.10899358	    -35.00000000	      0.00000000	      6.67468829	     11.29299987	     19.58469640	     36.86290295	     -0.69317279	    -26.04957552	      0.00000000	    -18.30957630	     -1.81422127	    -37.61060305	   -280.75964649	     29.60488579	    113.92289132	      0.00000000	     18.28604178	     -5.01844097	     -8.39384223	    306.86819917	     35.84310264	     75.10242414
